<svg width="24" height="24" viewBox="0 0 24 24" fill="none" xmlns="http://www.w3.org/2000/svg">
<g id="icon/battery">
<path id="Vector" fill-rule="evenodd" clip-rule="evenodd" d="M2.62763 6.58573C3.02949 6.21066 3.57454 5.99995 4.14286 5.99995H17.7143C18.2826 5.99995 18.8277 6.21066 19.2295 6.58573C19.6314 6.96081 19.8571 7.46951 19.8571 7.99995V8.66661H20.5714C20.9503 8.66661 21.3137 8.80709 21.5816 9.05714C21.8495 9.30719 22 9.64633 22 9.99995V13.9999C22 14.3536 21.8495 14.6927 21.5816 14.9428C21.3137 15.1928 20.9503 15.3333 20.5714 15.3333H19.8571V15.9999C19.8571 16.5304 19.6314 17.0391 19.2295 17.4142C18.8277 17.7892 18.2826 17.9999 17.7143 17.9999H4.14286C3.57454 17.9999 3.02949 17.7892 2.62763 17.4142C2.22576 17.0391 2 16.5304 2 15.9999V7.99995C2 7.46951 2.22576 6.96081 2.62763 6.58573ZM4.14286 7.33328C3.95342 7.33328 3.77174 7.40352 3.63778 7.52854C3.50383 7.65357 3.42857 7.82314 3.42857 7.99995V15.9999C3.42857 16.1768 3.50383 16.3463 3.63778 16.4714C3.77174 16.5964 3.95342 16.6666 4.14286 16.6666H17.7143C17.9037 16.6666 18.0854 16.5964 18.2194 16.4714C18.3533 16.3463 18.4286 16.1768 18.4286 15.9999V14.6666C18.4286 14.2984 18.7484 13.9999 19.1429 13.9999H20.5714V9.99995H19.1429C18.7484 9.99995 18.4286 9.70147 18.4286 9.33328V7.99995C18.4286 7.82314 18.3533 7.65357 18.2194 7.52854C18.0854 7.40352 17.9037 7.33328 17.7143 7.33328H4.14286ZM6.64286 9.33328C7.03735 9.33328 7.35714 9.63176 7.35714 9.99995V13.9999C7.35714 14.3681 7.03735 14.6666 6.64286 14.6666C6.24837 14.6666 5.92857 14.3681 5.92857 13.9999V9.99995C5.92857 9.63176 6.24837 9.33328 6.64286 9.33328ZM10.9286 9.33328C11.3231 9.33328 11.6429 9.63176 11.6429 9.99995V13.9999C11.6429 14.3681 11.3231 14.6666 10.9286 14.6666C10.5341 14.6666 10.2143 14.3681 10.2143 13.9999V9.99995C10.2143 9.63176 10.5341 9.33328 10.9286 9.33328ZM15.2143 9.33328C15.6088 9.33328 15.9286 9.63176 15.9286 9.99995V13.9999C15.9286 14.3681 15.6088 14.6666 15.2143 14.6666C14.8198 14.6666 14.5 14.3681 14.5 13.9999V9.99995C14.5 9.63176 14.8198 9.33328 15.2143 9.33328Z" fill="#FBFBF9"/>
</g>
</svg>
