<svg width="24" height="24" viewBox="0 0 24 24" fill="none" xmlns="http://www.w3.org/2000/svg">
<g id="icon/database">
<path id="Vector" d="M12 22C9.2037 22 6.83778 21.5693 4.90222 20.7078C2.96667 19.8463 1.99926 18.7956 2 17.5556V6.44444C2 5.22222 2.97704 4.17593 4.93111 3.30556C6.88519 2.43519 9.24148 2 12 2C14.7593 2 17.1159 2.43519 19.07 3.30556C21.0241 4.17593 22.0007 5.22222 22 6.44444V17.5556C22 18.7963 21.0322 19.8474 19.0967 20.7089C17.1611 21.5704 14.7956 22.0007 12 22ZM12 8.69444C13.6481 8.69444 15.3056 8.45815 16.9722 7.98556C18.6389 7.51296 19.5741 7.00852 19.7778 6.47222C19.5741 5.93519 18.6433 5.42593 16.9856 4.94444C15.3278 4.46296 13.6659 4.22222 12 4.22222C10.3148 4.22222 8.66185 4.45852 7.04111 4.93111C5.42037 5.4037 4.48074 5.91704 4.22222 6.47111C4.48148 7.02667 5.42148 7.53593 7.04222 7.99889C8.66296 8.46185 10.3156 8.6937 12 8.69444ZM12 14.2222C12.7778 14.2222 13.5278 14.1852 14.25 14.1111C14.9722 14.037 15.6622 13.9304 16.32 13.7911C16.977 13.6526 17.5974 13.4815 18.1811 13.2778C18.7648 13.0741 19.297 12.8426 19.7778 12.5833V9.25C19.2963 9.50926 18.7637 9.74074 18.18 9.94444C17.5963 10.1481 16.9759 10.3196 16.3189 10.4589C15.6619 10.5974 14.9722 10.7037 14.25 10.7778C13.5278 10.8519 12.7778 10.8889 12 10.8889C11.2222 10.8889 10.463 10.8519 9.72222 10.7778C8.98148 10.7037 8.28222 10.597 7.62445 10.4578C6.96741 10.3193 6.35185 10.1481 5.77778 9.94444C5.2037 9.74074 4.68519 9.50926 4.22222 9.25V12.5833C4.68519 12.8426 5.2037 13.0741 5.77778 13.2778C6.35185 13.4815 6.96778 13.653 7.62556 13.7922C8.28259 13.9307 8.98148 14.037 9.72222 14.1111C10.463 14.1852 11.2222 14.2222 12 14.2222ZM12 19.7778C12.8519 19.7778 13.7174 19.713 14.5967 19.5833C15.4759 19.4537 16.2863 19.2822 17.0278 19.0689C17.7685 18.8563 18.3889 18.6156 18.8889 18.3467C19.3889 18.0778 19.6852 17.8048 19.7778 17.5278V14.8056C19.2963 15.0648 18.7637 15.2963 18.18 15.5C17.5963 15.7037 16.9759 15.8752 16.3189 16.0144C15.6619 16.153 14.9722 16.2593 14.25 16.3333C13.5278 16.4074 12.7778 16.4444 12 16.4444C11.2222 16.4444 10.463 16.4074 9.72222 16.3333C8.98148 16.2593 8.28222 16.1526 7.62445 16.0133C6.96741 15.8748 6.35185 15.7037 5.77778 15.5C5.2037 15.2963 4.68519 15.0648 4.22222 14.8056V17.5556C4.31482 17.8333 4.60667 18.1019 5.09778 18.3611C5.58889 18.6204 6.20444 18.8567 6.94445 19.07C7.68519 19.2826 8.5 19.4537 9.38889 19.5833C10.2778 19.713 11.1481 19.7778 12 19.7778Z" fill="#FBFBF9"/>
</g>
</svg>
