<svg width="24" height="24" viewBox="0 0 24 24" fill="none" xmlns="http://www.w3.org/2000/svg">
<g id="icon/air-conditioning">
<path id="Vector" fill-rule="evenodd" clip-rule="evenodd" d="M3.81818 4C2.81403 4 2 4.79594 2 5.77778V12.8889C2 13.8707 2.81403 14.6667 3.81818 14.6667H6.53899C6.54114 14.6667 6.54329 14.6667 6.54544 14.6667H17.4545C17.4567 14.6667 17.4588 14.6667 17.461 14.6667H20.1818C21.186 14.6667 22 13.8707 22 12.8889V5.77778C22 4.79594 21.186 4 20.1818 4H3.81818ZM18.3636 12.8889H20.1818V5.77778H3.81818V12.8889H5.63635V10.2222C5.63635 9.73132 6.04337 9.33335 6.54544 9.33335H17.4545C17.9566 9.33335 18.3636 9.73132 18.3636 10.2222V12.8889ZM16.5454 12.8889H7.45453V11.1111H16.5454V12.8889ZM15.6364 6.66669C15.1343 6.66669 14.7273 7.06466 14.7273 7.55558C14.7273 8.0465 15.1343 8.44447 15.6364 8.44447H17.4545C17.9566 8.44447 18.3636 8.0465 18.3636 7.55558C18.3636 7.06466 17.9566 6.66669 17.4545 6.66669H15.6364ZM12.9091 16.4445C12.9091 15.9535 12.5021 15.5556 12 15.5556C11.4979 15.5556 11.0909 15.9535 11.0909 16.4445V19.1111C11.0909 19.6021 11.4979 20 12 20C12.5021 20 12.9091 19.6021 12.9091 19.1111V16.4445ZM9.27272 17.3334C9.27272 16.8424 8.8657 16.4445 8.36363 16.4445C7.86155 16.4445 7.45453 16.8424 7.45453 17.3334V18.2222C7.45453 18.7132 7.86155 19.1111 8.36363 19.1111C8.8657 19.1111 9.27272 18.7132 9.27272 18.2222V17.3334ZM16.5454 17.3334C16.5454 16.8424 16.1384 16.4445 15.6364 16.4445C15.1343 16.4445 14.7273 16.8424 14.7273 17.3334V18.2222C14.7273 18.7132 15.1343 19.1111 15.6364 19.1111C16.1384 19.1111 16.5454 18.7132 16.5454 18.2222V17.3334Z" fill="#FBFBF9"/>
</g>
</svg>
