<svg width="28" height="28" viewBox="0 0 28 28" fill="none" xmlns="http://www.w3.org/2000/svg">
<g id="icon/burger">
<g id="Vector">
<path fill-rule="evenodd" clip-rule="evenodd" d="M25.6666 6.99998C25.6666 6.35565 25.1443 5.83331 24.5 5.83331H3.49996C2.85563 5.83331 2.33329 6.35565 2.33329 6.99998C2.33329 7.64431 2.85563 8.16665 3.49996 8.16665H24.5C25.1443 8.16665 25.6666 7.64431 25.6666 6.99998Z" fill="#CCCCCC"/>
<path fill-rule="evenodd" clip-rule="evenodd" d="M21 14C21 13.3556 20.4776 12.8333 19.8333 12.8333H3.49996C2.85563 12.8333 2.33329 13.3556 2.33329 14C2.33329 14.6443 2.85563 15.1666 3.49996 15.1666H19.8333C20.4776 15.1666 21 14.6443 21 14Z" fill="#CCCCCC"/>
<path fill-rule="evenodd" clip-rule="evenodd" d="M16.3333 21C16.3333 20.3556 15.811 19.8333 15.1666 19.8333H3.49996C2.85563 19.8333 2.33329 20.3556 2.33329 21C2.33329 21.6443 2.85563 22.1666 3.49996 22.1666H15.1666C15.811 22.1666 16.3333 21.6443 16.3333 21Z" fill="#CCCCCC"/>
</g>
</g>
</svg>
