<svg width="24" height="24" viewBox="0 0 24 24" fill="none" xmlns="http://www.w3.org/2000/svg">
<g id="icon/fire-extinguisher">
<path id="Vector" d="M18.5107 5.89876L13.4594 4.43105L15.9567 3.2214C16.1145 3.1444 16.2342 3.00985 16.2896 2.84735C16.3449 2.68485 16.3313 2.5077 16.2519 2.35489C16.1724 2.20207 16.0335 2.0861 15.8657 2.03249C15.698 1.97887 15.5151 1.99201 15.3574 2.06901L11.4931 3.93993C9.75646 3.98364 8.106 4.6824 6.89322 5.8874C5.68044 7.0924 5.00115 8.70844 5 10.3914V18.7743C5 18.9454 5.07016 19.1095 5.19506 19.2305C5.31995 19.3514 5.48934 19.4194 5.66596 19.4194C5.84259 19.4194 6.01198 19.3514 6.13687 19.2305C6.26176 19.1095 6.33193 18.9454 6.33193 18.7743V16.1937H7.66385V20.7097C7.66385 21.0519 7.80418 21.3801 8.05396 21.6221C8.30375 21.8641 8.64253 22 8.99578 22H14.3235C14.6767 22 15.0155 21.8641 15.2653 21.6221C15.5151 21.3801 15.6554 21.0519 15.6554 20.7097V10.3874C15.6541 9.47302 15.3192 8.58856 14.7098 7.89028C14.1005 7.19199 13.256 6.72482 12.3256 6.57132V5.44796L18.1278 7.13421C18.2122 7.16084 18.3012 7.17086 18.3897 7.16368C18.4781 7.1565 18.5642 7.13226 18.6428 7.0924C18.7214 7.05253 18.7911 6.99784 18.8476 6.93154C18.9041 6.86524 18.9463 6.78866 18.9719 6.70632C18.9974 6.62397 19.0057 6.53751 18.9962 6.45202C18.9867 6.36652 18.9597 6.28373 18.9168 6.20849C18.8738 6.13326 18.8158 6.0671 18.746 6.01391C18.6763 5.96072 18.5963 5.92157 18.5107 5.89876ZM6.33193 14.9034V10.3874C6.33354 9.13086 6.80775 7.91798 7.6658 6.97572C8.52385 6.03346 9.70694 5.42639 10.9937 5.26813V6.57132C10.0632 6.72482 9.21872 7.19199 8.60941 7.89028C8.00009 8.58856 7.66518 9.47302 7.66385 10.3874V14.9034H6.33193ZM14.3235 20.7097H8.99578V16.1937H14.3235V20.7097ZM14.3235 10.3874V14.9034H8.99578V10.3874C8.99578 9.70295 9.27643 9.04657 9.776 8.56261C10.2756 8.07866 10.9531 7.80678 11.6596 7.80678C12.3661 7.80678 13.0437 8.07866 13.5433 8.56261C14.0428 9.04657 14.3235 9.70295 14.3235 10.3874Z" fill="#FBFBF9"/>
</g>
</svg>
