<svg width="28" height="28" viewBox="0 0 28 28" fill="none" xmlns="http://www.w3.org/2000/svg">
<g id="icon/logout">
<g id="Vector">
<path fill-rule="evenodd" clip-rule="evenodd" d="M3.5 4.42733C3.5 3.27084 4.44794 2.33331 5.61728 2.33331H17.716C18.8854 2.33331 19.8333 3.27084 19.8333 4.42733V6.34186C19.8333 6.8375 19.4271 7.2393 18.9259 7.2393C18.4248 7.2393 18.0185 6.8375 18.0185 6.34186V4.42733C18.0185 4.26212 17.8831 4.12818 17.716 4.12818H5.61728C5.45024 4.12818 5.31481 4.26212 5.31481 4.42733V23.5726C5.31481 23.7378 5.45024 23.8718 5.61728 23.8718H17.716C17.8831 23.8718 18.0185 23.7378 18.0185 23.5726V21.6581C18.0185 21.1625 18.4248 20.7607 18.9259 20.7607C19.4271 20.7607 19.8333 21.1625 19.8333 21.6581V23.5726C19.8333 24.7291 18.8854 25.6666 17.716 25.6666H5.61728C4.44794 25.6666 3.5 24.7291 3.5 23.5726V4.42733Z" fill="#CCCCCC"/>
<path d="M21.2548 10.1729C20.916 9.83122 20.3667 9.83122 20.0279 10.1729C19.6891 10.5146 19.6891 11.0687 20.0279 11.4104L22.0171 13.4166H13.7009C13.2218 13.4166 12.8333 13.8084 12.8333 14.2916C12.8333 14.7749 13.2218 15.1666 13.7009 15.1666H22.0172L20.0279 17.1729C19.6891 17.5146 19.6891 18.0687 20.0279 18.4104C20.3667 18.7521 20.916 18.7521 21.2548 18.4104L23.9071 15.7353C24.6977 14.938 24.6977 13.6453 23.9071 12.848L21.2548 10.1729Z" fill="#CCCCCC"/>
</g>
</g>
</svg>
