<svg width="24" height="24" viewBox="0 0 24 24" fill="none" xmlns="http://www.w3.org/2000/svg">
<g id="icon/server">
<path id="Vector" d="M15.8881 6.00069H8.11089V4.66742H15.8881V6.00069ZM15.8881 16.6669H8.11089V15.3336H15.8881V16.6669ZM15.8881 19.3334H8.11089V18.0002H15.8881V19.3334ZM17.4435 2.00087C17.6623 2.00087 17.8648 2.03559 18.0511 2.10503C18.2375 2.17447 18.3995 2.26822 18.5372 2.38627C18.6749 2.50432 18.7884 2.64667 18.8775 2.81333C18.9666 2.97999 19.0071 3.1536 18.999 3.33414V22H5V3.33414C5 3.14665 5.04051 2.97305 5.12152 2.81333C5.20253 2.65362 5.3119 2.51473 5.44962 2.39668C5.58734 2.27863 5.75342 2.18142 5.94785 2.10503C6.14228 2.02864 6.34481 1.99392 6.55544 2.00087H17.4435ZM17.4435 3.33414H6.55544V20.6667H17.4435V3.33414Z" fill="#FBFBF9"/>
</g>
</svg>
