<svg width="24" height="24" viewBox="0 0 24 24" fill="none" xmlns="http://www.w3.org/2000/svg">
<g id="icon/temperature">
<path id="Vector" d="M12.0001 7.62506C12.1658 7.62506 12.3248 7.69091 12.442 7.80812C12.5592 7.92534 12.6251 8.08431 12.6251 8.25007V14.5789C13.2143 14.731 13.7277 15.0928 14.0692 15.5964C14.4108 16.1001 14.5569 16.7109 14.4802 17.3146C14.4035 17.9182 14.1093 18.4732 13.6528 18.8754C13.1962 19.2777 12.6086 19.4996 12.0001 19.4996C11.3916 19.4996 10.804 19.2777 10.3474 18.8754C9.89084 18.4732 9.59664 17.9182 9.51997 17.3146C9.4433 16.7109 9.58941 16.1001 9.93092 15.5964C10.2724 15.0928 10.7859 14.731 11.3751 14.5789V8.25007C11.3751 8.08431 11.4409 7.92534 11.5581 7.80812C11.6753 7.69091 11.8343 7.62506 12.0001 7.62506ZM12.0001 1.99998C11.0055 1.99998 10.0517 2.39507 9.34839 3.09834C8.64512 3.80161 8.25002 4.75546 8.25002 5.75003V13.6927C7.61355 14.4143 7.19885 15.3044 7.05567 16.2559C6.91248 17.2074 7.04691 18.1801 7.44282 19.0571C7.83873 19.9342 8.47929 20.6783 9.28765 21.2003C10.096 21.7223 11.0378 22 12.0001 22C12.9623 22 13.9041 21.7223 14.7125 21.2003C15.5209 20.6783 16.1614 19.9342 16.5573 19.0571C16.9532 18.1801 17.0877 17.2074 16.9445 16.2559C16.8013 15.3044 16.3866 14.4143 15.7501 13.6927V5.75003C15.7501 4.75546 15.355 3.80161 14.6518 3.09834C13.9485 2.39507 12.9947 1.99998 12.0001 1.99998ZM12.0001 3.24999C12.6631 3.24999 13.299 3.51339 13.7679 3.98224C14.2367 4.45109 14.5001 5.08698 14.5001 5.75003V14.1939L14.6789 14.3752C15.1956 14.9026 15.5451 15.5709 15.6836 16.2962C15.8221 17.0215 15.7433 17.7716 15.4573 18.4523C15.1712 19.1331 14.6905 19.7142 14.0755 20.1229C13.4605 20.5315 12.7385 20.7495 12.0001 20.7495C11.2617 20.7495 10.5397 20.5315 9.92467 20.1229C9.30966 19.7142 8.82897 19.1331 8.5429 18.4523C8.25682 17.7716 8.17808 17.0215 8.31655 16.2962C8.45502 15.5709 8.80454 14.9026 9.32129 14.3752L9.50004 14.1939V5.75003C9.50004 5.08698 9.76344 4.45109 10.2323 3.98224C10.7011 3.51339 11.337 3.24999 12.0001 3.24999Z" fill="#FBFBF9"/>
</g>
</svg>
