<svg width="24" height="24" viewBox="0 0 24 24" fill="none" xmlns="http://www.w3.org/2000/svg">
<g id="icon/water">
<path id="Vector" d="M5.35 12.5455C6.54 12.5455 6.77 13.6364 8.68 13.6364C10.63 13.6364 10.77 12.5455 12.01 12.5455C13.2 12.5455 13.43 13.6364 15.34 13.6364C17.29 13.6364 17.43 12.5455 18.67 12.5455C19.86 12.5455 20.07 13.6145 21.98 13.6364V11.4545C20.79 11.4545 20.56 10.3636 18.65 10.3636C16.7 10.3636 16.56 11.4545 15.32 11.4545C14.13 11.4545 13.9 10.3636 11.99 10.3636C10.04 10.3636 9.9 11.4545 8.66 11.4545C7.47 11.4545 7.24 10.3636 5.33 10.3636C3.38 10.3636 3.24 11.4545 2 11.4545V13.6364C3.9 13.6364 4.17 12.5455 5.35 12.5455ZM18.67 14.7273C16.72 14.7273 16.58 15.8182 15.34 15.8182C14.15 15.8182 13.92 14.7273 12.01 14.7273C10.06 14.7273 9.91 15.8182 8.67 15.8182C7.43 15.8182 7.29 14.7273 5.34 14.7273C3.39 14.7273 3.24 15.8182 2 15.8182V18C3.95 18 4.11 16.9091 5.34 16.9091C6.58 16.9091 6.72 18 8.67 18C10.62 18 10.77 16.9091 12.01 16.9091C13.2 16.9091 13.43 18 15.34 18C17.28 18 17.43 16.9091 18.67 16.9091C19.86 16.9091 20.09 18 22 18V15.8182C20.76 15.8182 20.62 14.7273 18.67 14.7273ZM5.35 8.18182C6.54 8.18182 6.77 9.27273 8.68 9.27273C10.63 9.27273 10.77 8.18182 12.01 8.18182C13.2 8.18182 13.43 9.27273 15.34 9.27273C17.29 9.27273 17.43 8.18182 18.67 8.18182C19.86 8.18182 20.07 9.25091 21.98 9.27273V7.09091C20.79 7.09091 20.56 6 18.65 6C16.7 6 16.56 7.09091 15.32 7.09091C14.13 7.09091 13.9 6 11.99 6C10.04 6 9.9 7.09091 8.66 7.09091C7.47 7.09091 7.24 6 5.33 6C3.38 6 3.24 7.09091 2 7.09091V9.27273C3.9 9.27273 4.17 8.18182 5.35 8.18182Z" fill="#FBFBF9"/>
</g>
</svg>
